<?xml version="1.0" encoding="UTF-8" standalone="no"?>
<!-- Created with Inkscape (http://www.inkscape.org/) -->

<svg
   xmlns:dc="http://purl.org/dc/elements/1.1/"
   xmlns:cc="http://creativecommons.org/ns#"
   xmlns:rdf="http://www.w3.org/1999/02/22-rdf-syntax-ns#"
   xmlns:svg="http://www.w3.org/2000/svg"
   xmlns="http://www.w3.org/2000/svg"
   xmlns:xlink="http://www.w3.org/1999/xlink"
   xmlns:sodipodi="http://sodipodi.sourceforge.net/DTD/sodipodi-0.dtd"
   xmlns:inkscape="http://www.inkscape.org/namespaces/inkscape"
   width="200"
   height="200"
   id="svg18416"
   version="1.1"
   inkscape:version="0.92.4 (5da689c313, 2019-01-14)"
   sodipodi:docname="folder-publicshare-alt.svg">
  <defs
     id="defs18418">
    <linearGradient
       inkscape:collect="always"
       id="linearGradient888">
      <stop
         style="stop-color:#07b9ef;stop-opacity:1"
         offset="0"
         id="stop884" />
      <stop
         style="stop-color:#07b8ee;stop-opacity:1"
         offset="1"
         id="stop886" />
    </linearGradient>
    <linearGradient
       inkscape:collect="always"
       id="linearGradient6447">
      <stop
         style="stop-color:#03b6ec;stop-opacity:1;"
         offset="0"
         id="stop6449" />
      <stop
         style="stop-color:#13c0f7;stop-opacity:1"
         offset="1"
         id="stop6451" />
    </linearGradient>
    <linearGradient
       id="linearGradient19076">
      <stop
         style="stop-color:#3bc1f1;stop-opacity:1;"
         offset="0"
         id="stop19078" />
      <stop
         style="stop-color:#0e95c5;stop-opacity:1;"
         offset="1"
         id="stop19080" />
    </linearGradient>
    <linearGradient
       id="linearGradient18984">
      <stop
         style="stop-color:#78d9fd;stop-opacity:1;"
         offset="0"
         id="stop18986" />
      <stop
         style="stop-color:#7bdeff;stop-opacity:1;"
         offset="1"
         id="stop18988" />
    </linearGradient>
    <linearGradient
       id="linearGradient18973">
      <stop
         style="stop-color:#35cafc;stop-opacity:1;"
         offset="0"
         id="stop18975" />
      <stop
         id="stop18981"
         offset="0.5"
         style="stop-color:#50d4ff;stop-opacity:1;" />
      <stop
         style="stop-color:#4dcbf6;stop-opacity:1;"
         offset="1"
         id="stop18977" />
    </linearGradient>
    <linearGradient
       inkscape:collect="always"
       xlink:href="#linearGradient18973"
       id="linearGradient18979"
       x1="-9.9121208"
       y1="1081.4041"
       x2="-9.9121208"
       y2="1139.7776"
       gradientUnits="userSpaceOnUse" />
    <linearGradient
       inkscape:collect="always"
       xlink:href="#linearGradient18984"
       id="linearGradient18990"
       x1="-26.20083"
       y1="1070.1985"
       x2="-26.20083"
       y2="1082.5807"
       gradientUnits="userSpaceOnUse" />
    <linearGradient
       inkscape:collect="always"
       xlink:href="#linearGradient18973-9"
       id="linearGradient18979-8"
       x1="-9.9121208"
       y1="1081.4041"
       x2="-9.9121208"
       y2="1139.7776"
       gradientUnits="userSpaceOnUse" />
    <linearGradient
       id="linearGradient18973-9">
      <stop
         style="stop-color:#35cafc;stop-opacity:1;"
         offset="0"
         id="stop18975-4" />
      <stop
         id="stop18981-4"
         offset="0.5"
         style="stop-color:#50d4ff;stop-opacity:1;" />
      <stop
         style="stop-color:#4dcbf6;stop-opacity:1;"
         offset="1"
         id="stop18977-5" />
    </linearGradient>
    <linearGradient
       gradientTransform="translate(0,2.9382813e-5)"
       y2="1139.7776"
       x2="-9.9121208"
       y1="1081.4041"
       x1="-9.9121208"
       gradientUnits="userSpaceOnUse"
       id="linearGradient19047"
       xlink:href="#linearGradient18973-9"
       inkscape:collect="always" />
    <linearGradient
       inkscape:collect="always"
       xlink:href="#linearGradient19076"
       id="linearGradient19082"
       x1="-9.6167412"
       y1="1138.386"
       x2="-9.6167412"
       y2="1140.1899"
       gradientUnits="userSpaceOnUse" />
    <linearGradient
       inkscape:collect="always"
       xlink:href="#linearGradient18984"
       id="linearGradient19091"
       gradientUnits="userSpaceOnUse"
       x1="-26.20083"
       y1="1070.1985"
       x2="-26.20083"
       y2="1082.5807" />
    <linearGradient
       inkscape:collect="always"
       xlink:href="#linearGradient18973"
       id="linearGradient19093"
       gradientUnits="userSpaceOnUse"
       x1="-9.9121208"
       y1="1081.4041"
       x2="-9.9121208"
       y2="1139.7776" />
    <linearGradient
       inkscape:collect="always"
       xlink:href="#linearGradient19076"
       id="linearGradient19095"
       gradientUnits="userSpaceOnUse"
       x1="-9.6167412"
       y1="1138.386"
       x2="-9.6167412"
       y2="1140.1899" />
    <linearGradient
       inkscape:collect="always"
       xlink:href="#linearGradient18984"
       id="linearGradient19106"
       gradientUnits="userSpaceOnUse"
       x1="-26.20083"
       y1="1070.1985"
       x2="-26.20083"
       y2="1082.5807"
       gradientTransform="matrix(2.213863,0,0,2.213863,109.01523,-1492.534)" />
    <linearGradient
       inkscape:collect="always"
       xlink:href="#linearGradient18973"
       id="linearGradient19108"
       gradientUnits="userSpaceOnUse"
       x1="-9.9121208"
       y1="1081.4041"
       x2="-9.9121208"
       y2="1139.7776"
       gradientTransform="matrix(2.213863,0,0,2.213863,109.01523,-1492.534)" />
    <clipPath
       clipPathUnits="userSpaceOnUse"
       id="clipPath5833">
      <rect
         style="color:#000000;display:inline;overflow:visible;visibility:visible;opacity:0.16100003;fill:#dddedd;fill-opacity:1;fill-rule:nonzero;stroke:none;stroke-width:0.1;stroke-linecap:round;stroke-linejoin:miter;stroke-miterlimit:4;stroke-dasharray:none;stroke-dashoffset:0;stroke-opacity:1;marker:none;enable-background:accumulate"
         id="rect5835"
         width="162.85715"
         height="118.57143"
         x="15"
         y="1379.505"
         rx="2.8672099"
         ry="2.78354" />
    </clipPath>
    <linearGradient
       gradientTransform="matrix(2.213863,0,0,2.213863,109.49069,-1496.5339)"
       inkscape:collect="always"
       xlink:href="#linearGradient18973"
       id="linearGradient892"
       x1="-6.5454307"
       y1="1081.7725"
       x2="-6.5454307"
       y2="1142.752"
       gradientUnits="userSpaceOnUse" />
    <linearGradient
       id="linearGradient865">
      <stop
         id="stop859"
         offset="0"
         style="stop-color:#505050;stop-opacity:1" />
      <stop
         style="stop-color:#727272;stop-opacity:1"
         offset="0.5"
         id="stop861" />
      <stop
         id="stop863"
         offset="1"
         style="stop-color:#959595;stop-opacity:1" />
    </linearGradient>
    <linearGradient
       inkscape:collect="always"
       xlink:href="#linearGradient888"
       id="linearGradient890"
       x1="95"
       y1="177"
       x2="95"
       y2="181"
       gradientUnits="userSpaceOnUse" />
    <linearGradient
       inkscape:collect="always"
       xlink:href="#linearGradient6447"
       id="linearGradient899"
       x1="-1.024666"
       y1="1087.2478"
       x2="-1.024666"
       y2="1145.9686"
       gradientUnits="userSpaceOnUse" />
    <linearGradient
       inkscape:collect="always"
       xlink:href="#linearGradient6447"
       id="linearGradient907"
       gradientUnits="userSpaceOnUse"
       x1="-2.0284395"
       y1="1090.8065"
       x2="-2.0284395"
       y2="1124.684"
       gradientTransform="matrix(1.1111112,0,0,1.1111112,2.3723479,-124.88125)" />
    <linearGradient
       inkscape:collect="always"
       xlink:href="#linearGradient6447"
       id="linearGradient1344"
       gradientUnits="userSpaceOnUse"
       gradientTransform="matrix(1.1111112,0,0,1.1111112,2.3723479,-124.88125)"
       x1="-2.0284395"
       y1="1090.8065"
       x2="-2.0284395"
       y2="1124.684" />
  </defs>
  <sodipodi:namedview
     id="base"
     pagecolor="#ffffff"
     bordercolor="#666666"
     borderopacity="1.0"
     inkscape:pageopacity="0.0"
     inkscape:pageshadow="2"
     inkscape:zoom="3.58"
     inkscape:cx="-0.55865961"
     inkscape:cy="94.692738"
     inkscape:document-units="px"
     inkscape:current-layer="g923"
     showgrid="true"
     inkscape:window-width="1920"
     inkscape:window-height="957"
     inkscape:window-x="0"
     inkscape:window-y="25"
     inkscape:window-maximized="1"
     inkscape:pagecheckerboard="true">
    <inkscape:grid
       type="xygrid"
       id="grid853" />
  </sodipodi:namedview>
  <metadata
     id="metadata18421">
    <rdf:RDF>
      <cc:Work
         rdf:about="">
        <dc:format>image/svg+xml</dc:format>
        <dc:type
           rdf:resource="http://purl.org/dc/dcmitype/StillImage" />
        <dc:title />
      </cc:Work>
    </rdf:RDF>
  </metadata>
  <g
     inkscape:label="Layer 1"
     inkscape:groupmode="layer"
     id="layer1"
     transform="translate(0,-852.36218)">
    <g
       id="g923">
      <path
         sodipodi:nodetypes="sccssssssss"
         inkscape:connector-curvature="0"
         id="rect18953-5"
         d="m 9.9174485,876.75635 c 16.3315355,0 32.6630675,0 48.9946025,0 7.27724,0 10.300101,15.65445 17.10831,15.65445 37.275279,0 76.786899,0 114.062189,0 4.02652,0 7.2681,3.24154 7.2681,7.26811 v 111.81689 c 0,4.0266 -3.24158,-4.4727 -7.2681,-4.4727 H 9.9174485 c -4.0265295,0 -7.2681031,-3.2415 -7.2681031,-7.26806 V 884.02446 c 0,-4.02657 3.2415736,-7.26811 7.2681031,-7.26811 z"
         style="color:#000000;display:inline;overflow:visible;visibility:visible;fill:url(#linearGradient19106);fill-opacity:1;fill-rule:nonzero;stroke:none;stroke-width:0.88554519;marker:none;enable-background:accumulate" />
      <path
         inkscape:connector-curvature="0"
         style="color:#000000;display:inline;overflow:visible;visibility:visible;fill:url(#linearGradient19108);fill-opacity:1;fill-rule:nonzero;stroke:none;stroke-width:0.88554519;marker:none;enable-background:accumulate"
         d="M 9.9174486,901.26691 H 190.08255 c 4.02652,0 7.2681,3.24154 7.2681,7.26812 v 115.73057 c 0,4.0266 -3.24158,7.2681 -7.2681,7.2681 H 9.9174486 c -4.0265295,0 -7.2681031,-3.2415 -7.2681031,-7.2681 V 908.53503 c 0,-4.02658 3.2415736,-7.26812 7.2681031,-7.26812 z"
         id="rect18953" />
      <rect
         rx="4.098968"
         y="903.36218"
         x="2.649498"
         height="130"
         width="194.701"
         id="rect884"
         style="opacity:1;fill:url(#linearGradient892);fill-opacity:1;fill-rule:evenodd;stroke:none;stroke-width:11.47799587;stroke-linecap:butt;stroke-linejoin:round;stroke-miterlimit:4;stroke-dasharray:none;stroke-opacity:0;paint-order:stroke fill markers" />
      <path
         id="path19074"
         d="m 2.6592114,1018.1657 v 2.2139 H 197.34079 v -2.2139 z"
         style="color:#000000;font-style:normal;font-variant:normal;font-weight:normal;font-stretch:normal;font-size:medium;line-height:normal;font-family:Sans;-inkscape-font-specification:Sans;text-indent:0;text-align:start;text-decoration:none;text-decoration-line:none;letter-spacing:normal;word-spacing:normal;text-transform:none;writing-mode:lr-tb;direction:ltr;baseline-shift:baseline;text-anchor:start;display:inline;overflow:visible;visibility:visible;opacity:0.97607655;fill:#2ac1f2;fill-opacity:1;fill-rule:nonzero;stroke:none;stroke-width:2.2138629px;marker:none;enable-background:accumulate"
         inkscape:connector-curvature="0" />
      <path
         id="path19072"
         d="m 2.6592014,1023.0779 v 1.176 c 0,0.3586 0.019482,0.6933 0.069183,1.0378 H 197.2716 c 0.0497,-0.3445 0.0692,-0.6792 0.0692,-1.0378 v -1.176 z"
         style="color:#000000;font-style:normal;font-variant:normal;font-weight:normal;font-stretch:normal;font-size:medium;line-height:normal;font-family:Sans;-inkscape-font-specification:Sans;text-indent:0;text-align:start;text-decoration:none;text-decoration-line:none;letter-spacing:normal;word-spacing:normal;text-transform:none;writing-mode:lr-tb;direction:ltr;baseline-shift:baseline;text-anchor:start;display:inline;overflow:visible;visibility:visible;opacity:0.97607655;fill:#2ac1f2;fill-opacity:1;fill-rule:nonzero;stroke:none;stroke-width:2.2138629px;marker:none;enable-background:accumulate"
         inkscape:connector-curvature="0" />
      <path
         id="rect879"
         transform="translate(0,852.36218)"
         d="M 2.6601562 177 C 2.7139895 179.22327 4.5113579 181 6.7480469 181 L 193.25195 181 C 195.48864 181 197.28601 179.22327 197.33984 177 L 2.6601562 177 z "
         style="opacity:0.5;fill:url(#linearGradient890);fill-opacity:1;fill-rule:evenodd;stroke:none;stroke-width:11.33858299;stroke-linecap:butt;stroke-linejoin:round;stroke-miterlimit:4;stroke-dasharray:none;stroke-opacity:0;paint-order:stroke fill markers" />
      <g
         id="g891"
         style="fill:url(#linearGradient899);fill-opacity:1"
         transform="matrix(2.213863,0,0,2.213863,102.26847,-1484.6554)">
        <path
           style="opacity:1;fill:url(#linearGradient1344);fill-opacity:1;stroke:none;stroke-width:2.44823384;stroke-linejoin:round;stroke-miterlimit:10"
           inkscape:connector-curvature="0"
           stroke-miterlimit="10"
           d="m 2.0417464,1100.5968 c 0.3672352,0.2447 0.8568819,0.7344 0.7344703,1.8361 -0.2448235,1.9587 -1.1017053,2.4483 -1.5913519,2.5708 0,0.2446 -0.1224117,0.6118 -0.1224117,0.9792 0.367235,0.8567 0.8568817,1.4689 1.1017051,1.5913 0,1.1016 0,1.8362 -0.1224118,3.0602 -0.367235,1.1018 -1.46894023,1.7138 -2.81546884,2.3259 0,0.1224 0,0.2449 0,0.3672 1.1017053,3.0604 7.09987764,3.3052 10.40499374,6.3655 h 9.6705237 c -0.367235,-6.6103 -8.813641,-5.631 -10.1601699,-9.0586 -0.1224121,-1.224 -0.1224121,-1.9586 -0.1224121,-3.0602 0.4896473,-0.2448 1.468941,-2.081 1.591352,-3.55 0.367235,0 1.101706,-0.4897 1.224117,-2.081 0.122412,-0.8568 -0.244823,-1.3464 -0.612059,-1.4689 0.612059,-2.081 2.080999,-8.324 -2.5706453,-8.9361 -0.3672353,-0.9792 -1.591352,-1.3464 -3.1827039,-1.3464 -1.4689403,0 -2.6930571,0.3672 -3.6723507,0.8569 2.0809988,2.5705 0.8568818,7.5894 0.2448233,9.5481 z"
           id="path846" />
        <path
           style="opacity:1;fill:url(#linearGradient907);fill-opacity:1;stroke:none;stroke-width:2.51843429;stroke-linejoin:round;stroke-miterlimit:10"
           inkscape:connector-curvature="0"
           stroke-miterlimit="10"
           d="m 0.81109298,1112.3463 c -0.12592176,-1.5111 -0.12592176,-2.5185 -0.12592176,-3.9036 0.62960858,-0.3777 1.88882568,-2.6443 2.14066908,-4.533 0.5036869,0 1.3851388,-0.5039 1.6369822,-2.6445 0.1259218,-1.1333 -0.377765,-1.7629 -0.7555303,-1.8888 0.8814521,-2.6444 2.6443559,-10.7033 -3.27396428,-11.5849 -0.62960859,-1.1333 -2.26659082,-1.637 -4.28133812,-1.637 -8.1849108,0.1261 -9.1922858,6.1703 -7.4293818,13.2219 -0.377764,0.2518 -0.88145,0.7555 -0.755529,1.8888 0.251845,2.0148 1.133295,2.5184 1.636982,2.6445 0.251844,1.8887 1.5110615,4.1553 2.1406692,4.533 0,1.3851 0,2.3925 -0.1259222,3.9036 -1.5110607,4.4072 -12.466248,3.148 -12.969935,11.5848 h 35.132155 c -0.503686,-8.4368 -11.3329528,-7.1776 -12.96993502,-11.5848 z"
           id="path848" />
      </g>
    </g>
  </g>
</svg>
